<svg xmlns="http://www.w3.org/2000/svg" xmlns:xlink="http://www.w3.org/1999/xlink" viewBox="0 0 1920 969.48"><defs><style>.cls-1{opacity:0.18;}.cls-2{fill:url(#Gradiente_sem_nome_2);}.cls-3{fill:url(#Gradiente_sem_nome_2-2);}</style><linearGradient id="Gradiente_sem_nome_2" x1="619.17" y1="905.54" x2="622.95" y2="905.54" gradientTransform="matrix(629.61, 0, 0, -214.67, -394672.24, 194503.01)" gradientUnits="userSpaceOnUse"><stop offset="0" stop-color="#5a5a5a"/><stop offset="0.24" stop-color="#171717"/><stop offset="0.27" stop-color="#272727"/><stop offset="0.33" stop-color="#434343"/><stop offset="0.39" stop-color="#545454"/><stop offset="0.43" stop-color="#5a5a5a"/><stop offset="0.63" stop-color="#5a5a5a"/><stop offset="0.67" stop-color="#535353"/><stop offset="0.72" stop-color="#424242"/><stop offset="0.77" stop-color="#252525"/><stop offset="0.78" stop-color="#202020"/><stop offset="0.87" stop-color="#0e0e0e"/><stop offset="1" stop-color="#5a5a5a"/></linearGradient><linearGradient id="Gradiente_sem_nome_2-2" x1="626.62" y1="905.32" x2="627.86" y2="905.32" gradientTransform="matrix(1920, 0, 0, -832.14, -1208187.54, 753898.55)" xlink:href="#Gradiente_sem_nome_2"/></defs><g id="Camada_2" data-name="Camada 2"><g id="Layer_1" data-name="Layer 1"><g id="Grupo_4" data-name="Grupo 4" class="cls-1"><g id="Grupo_3" data-name="Grupo 3"><path id="Caminho_3" data-name="Caminho 3" class="cls-2" d="M1207.13,209.49A84.13,84.13,0,0,0,1253,213c14.14-2.95,27.44-9.89,36.92-21.76,6.39-8,10.47-17.4,14.42-26.5,3-7,6.16-14.21,10.28-20.59,20.29-31.4,60.07-40,98.54-48.25,7.83-1.69,15.6-3.36,23.12-5.2,23-5.65,35.59-17,48.89-29.11,7.45-6.76,15.15-13.74,25-19.76,28.4-17.4,42.53-17.51,75.66-13.42C1629,33.73,1685.4,35,1725.36,0h-7.79c-29.44,23.2-71.86,30.45-131.12,23.13-33.79-4.17-49.36-4-79.07,14.16-10.25,6.28-18.14,13.43-25.77,20.35-12.79,11.6-24.87,22.56-46.6,27.89-7.48,1.83-15.19,3.5-23,5.17-39.53,8.5-80.4,17.3-101.87,50.54-4.36,6.74-7.58,14.17-10.69,21.36-4,9.19-7.76,17.87-13.7,25.3-18.39,23-52.55,25.79-76.79,16.63-23.18-8.75-44.16-27.76-62.34-56.5-25.87-40.88-41-89.84-45.6-148h-5.3c4.67,59.25,20,109.14,46.42,150.87C1161,180.6,1182.84,200.32,1207.13,209.49Z"/><path id="Caminho_4" data-name="Caminho 4" class="cls-3" d="M1900.13,176.06c4.4-11.7,11.49-21.62,19.87-30.93v-7.79c-10.36,10.86-19.5,22.7-24.82,36.86-11.27,30-2.8,62.05,5.39,93.06,7.65,28.94,15.55,58.86,7.08,86.58-12.17,39.85-53.77,61.45-88.57,68.31-27.44,5.44-56.11,4.68-83.85,4-11.73-.31-23.85-.63-35.76-.48-73.65.9-137.63,25.44-199.49,49.16-40.36,15.47-82.1,31.47-126.55,41.05-44.15,9.54-83.65,2.5-125.19-5-19.17-3.46-39-7-59.64-8.95-91.6-8.46-154.41,18.44-216.84,92.88-25.9,30.89-51.33,45.53-75.62,43.52-28.33-2.36-56.86-27.6-84.8-75-26.74-45.4-73.8-90.66-118.49-68.73S656,582.85,659.45,602.67c.67,3.84,1.38,7.72,2.1,11.63,6.59,35.84,13.4,72.91-5.8,101.58-10.5,15.67-27.8,26.57-44.54,37.1-22.15,13.93-45.05,28.34-51.48,53.91-4.33,17.19.43,34.47,5,51.18,3.43,12.46,7,25.34,6.67,38-.51,21.38-12.19,40.14-32.87,52.81C509,967,466.93,969.32,436.21,954.59c-43.11-20.68-72.77-60.91-101.44-99.82-6.89-9.34-14-19-21.18-28.2C305.36,816,238.52,732.61,189,743a39.91,39.91,0,0,0-15.9,7.25c-13.56,10.16-16.05,28.36-18.46,46-4,29.1-7.73,56.59-58.11,51.64-34.69-3.41-66.47-31.63-79.08-70.22-21.59-66,7.42-129.16,35.47-190.22,5.86-12.76,11.92-26,17.26-38.71C91,498.93,119,404.76,72.09,332.91c-14-21.53-33.54-38.8-52.4-55.51C13.14,271.59,6.47,265.66,0,259.54v7.22c5.37,5,10.81,9.83,16.19,14.6,18.6,16.47,37.83,33.5,51.47,54.44,45.53,69.81,18.07,162.06-2.35,210.84-5.3,12.67-11.07,25.23-17.19,38.54-28.47,62-57.92,126.07-35.69,194.07C25.69,819.8,59.28,849.47,96,853.08c55.42,5.45,59.91-27.3,63.86-56.18,2.36-17.29,4.6-33.62,16.39-42.45,37.05-27.8,101.13,34.3,133.14,75.36,7.13,9.15,14.23,18.78,21.1,28.1,29.06,39.43,59.11,80.2,103.42,101.45,32.24,15.46,76.4,13,107.38-6,22.27-13.65,34.84-34,35.4-57.19.33-13.42-3.32-26.68-6.85-39.51-4.62-16.79-9-32.65-5-48.49,5.91-23.51,26.92-36.73,49.16-50.73,17.21-10.83,35-22,46.13-38.63,20.39-30.45,13.38-68.6,6.6-105.48-.72-3.9-1.43-7.76-2.1-11.59-3.31-18.9-10.9-82.17,30.53-102.5s86,23.22,111.6,66.67c29.27,49.7,58.35,75.1,88.91,77.63,26.09,2.18,53-13.11,80.11-45.38,62-73.89,121.49-99.41,212.3-91,20.42,1.89,40.13,5.44,59.18,8.88,11.15,2,22.14,4,33.4,5.66,30.13,4.48,60.43,6.4,93.86-.7,44.85-9.67,86.78-25.75,127.33-41.29,64.26-24.64,125-47.91,197.66-48.81,11.81-.14,23.88.17,35.56.48,28,.74,57,1.51,85-4,36.39-7.24,79.75-29.87,92.6-72,8.91-29.16.81-59.82-7-89.48C1897.34,234.31,1889.45,204.47,1900.13,176.06Z"/></g></g></g></g></svg>